PathFileType	4	(X/Y/Z)	Walk9.trc
DataRate	CameraRate	NumFrames	NumMarkers	Units	OrigDataRate	OrigDataStartFrame	OrigNumFrames
200.000000	200.000000	7	59	mm	200.000000	393	603
Frame#	Times		LFHD		RFHD		RASI		RACR1		RUA1		RFA1		RWRR		RCAR		LACR1		LUA1		LElbow		LWRU		RTH2		RMT5		LTH3		LLFC		LTB1		LMT1		LTB4		LMT5		RLFC		LTB2		CLAV		LTB3		LToe		STRN		LFA1		LTH2		LTH4		LLMAL		RBHD		RTH3		LASI		LTH1		RMT1		RBack		RElbowM		C7		LPSI		LCAR		LBHD		RToe		RPSI		RCAL		RElbow		RTH4		RLMAL		RTH1		RTB2		RTB3		RTB4		LWRR		RTB1		RMMAL		LMMAL		T10		RWRU		LCAL		LElbowM
			X1	Y1	Z1	X2	Y2	Z2	X3	Y3	Z3	X4	Y4	Z4	X5	Y5	Z5	X6	Y6	Z6	X7	Y7	Z7	X8	Y8	Z8	X9	Y9	Z9	X10	Y10	Z10	X11	Y11	Z11	X12	Y12	Z12	X13	Y13	Z13	X14	Y14	Z14	X15	Y15	Z15	X16	Y16	Z16	X17	Y17	Z17	X18	Y18	Z18	X19	Y19	Z19	X20	Y20	Z20	X21	Y21	Z21	X22	Y22	Z22	X23	Y23	Z23	X24	Y24	Z24	X25	Y25	Z25	X26	Y26	Z26	X27	Y27	Z27	X28	Y28	Z28	X29	Y29	Z29	X30	Y30	Z30	X31	Y31	Z31	X32	Y32	Z32	X33	Y33	Z33	X34	Y34	Z34	X35	Y35	Z35	X36	Y36	Z36	X37	Y37	Z37	X38	Y38	Z38	X39	Y39	Z39	X40	Y40	Z40	X41	Y41	Z41	X42	Y42	Z42	X43	Y43	Z43	X44	Y44	Z44	X45	Y45	Z45	X46	Y46	Z46	X47	Y47	Z47	X48	Y48	Z48	X49	Y49	Z49	X50	Y50	Z50	X51	Y51	Z51	X52	Y52	Z52	X53	Y53	Z53	X54	Y54	Z54	X55	Y55	Z55	X56	Y56	Z56	X57	Y57	Z57	X58	Y58	Z58	X59	Y59	Z59

393	1.965	170.92	1549.3	-22.013	171.04	1547.6	75.751	134.77	937.05	200.12	30.703	1350.2	199.02	-13.334	1208.4	285.75	-2.3541	910.88	324.02	-25.633	808.4	354.46	1.7068	748.35	329.84	53.247	1332.2	-159.16	71.554	1188	-235.55	55.658	1045.3	-284.25	221.57	864.56	-303.89	182.63	637.4	199.01	357.11	30.715	169.17	-21.612	549.94	-151.61	-73.992	488.93	-138.77	-109.47	328.98	-41.741	-167.12	37.083	-29.983	-155.9	257.25	-49.731	-188.17	24.239	-116.2	171.1	452.77	183.59	-154.86	263.71	-111.85	114.1	1313	21.655	-195.56	181.45	-56.057	-127	29.031	-29.252	178.57	1198	28.956	167.8	971.06	-279.56	61.959	613.35	-149.78	11.285	625.89	-179.81	-276.57	111.3	-116.24	0.5002	1548.7	84.189	145.92	539.3	198.59	122.28	943.05	-162.72	47.558	698.59	-206.94	366.58	41.525	79.92	-106.4	1287	119.68	-97.127	1034.8	237.6	-48.318	1389.7	25.098	-113.62	954.36	-61.346	277.06	847.59	-286.02	19.315	1538.4	-50.312	407.43	45.25	85.755	-118.33	947	70.397	180.62	25.683	123.02	-57.374	1045.5	320.24	127.55	621.45	217.65	231.3	64.3	166.85	118.79	702.38	241.75	234.57	276.11	166.23	256.93	187.64	109.63	247.21	271.94	105.56	242.55	884.2	-234.83	246.92	358.61	100.7	247.9	73.976	80.972	-263.64	113.9	-31.942	-96.412	1058	15.588	-0.95691	805.62	284.52	-341.46	95.804	-74.174	21.773	998.79	-193.09
394	1.97	175.49	1550	-20.279	175.69	1548.4	77.484	140.19	937.57	200.92	35.716	1350.4	200.83	-7.9258	1208.2	287.23	3.439	910.65	324.95	-19.695	808.11	355.26	7.773	748.16	330.61	58.12	1333.3	-157.4	75.177	1189	-234.19	58.912	1046.2	-282.71	224.98	865.43	-302.26	187.81	638.32	199.47	357.66	29.745	169.61	-15.738	550.13	-151.73	-68.016	489.07	-139.07	-104.78	329.09	-42.188	-166.79	37.159	-30.151	-151.89	257.87	-50.291	-188.12	24.225	-116.13	176.07	453.57	184.06	-150.91	264.41	-112.41	118.96	1313.8	23.39	-192.51	182.58	-56.648	-127.13	29.017	-29.362	183.63	1198.8	30.851	171.25	972.09	-278.11	67.641	613.82	-149.6	16.968	626.25	-179.71	-274.54	113.46	-116.75	5.1591	1549.5	86.043	150.86	540.3	199.1	127.69	943.91	-161.69	53.048	699.11	-206.68	367.09	40.013	79.847	-101.39	1287.2	121.44	-91.563	1034.6	238.7	-43.454	1390.3	27.098	-108.23	954.83	-60.894	280.57	848.59	-284.5	23.865	1539	-48.475	408.13	43.021	85.601	-113.04	947.69	70.851	180.86	26.073	123.14	-51.725	1045.2	321.34	132.65	622.6	218.01	232.02	64.406	167.03	124.42	703.46	241.99	237.92	276.04	166.33	258.77	187.34	109.5	249.94	271.76	105.55	246.23	885.53	-233.44	250.66	358.39	100.74	248.48	73.801	80.967	-261.3	115.96	-32.501	-91.2	1058.5	16.326	4.9999	805.44	285.32	-339.37	99.332	-74.393	25.561	999.85	-191.25
395	1.975	180.08	1550.7	-18.544	180.36	1549.2	79.217	145.63	938.23	201.7	40.721	1350.6	202.64	-2.5101	1208	288.7	9.2538	910.52	325.89	-13.723	807.92	356.06	13.87	748.06	331.38	63.015	1334.4	-155.63	78.815	1190	-232.8	62.116	1047.2	-281.13	228.24	866.28	-300.67	192.91	639.26	199.94	358.15	28.966	170.01	-9.6892	550.34	-151.91	-61.829	489.21	-139.44	-99.845	329.21	-42.717	-166.46	37.232	-30.302	-147.66	258.5	-50.912	-188.06	24.229	-116.04	180.89	454.34	184.53	-146.76	265.13	-113.03	123.82	1314.7	25.145	-189.25	183.73	-57.285	-127.28	28.997	-29.469	188.68	1199.7	32.808	174.62	973.13	-276.67	73.454	614.37	-149.44	22.779	626.67	-179.63	-272.34	115.72	-117.25	9.8397	1550.3	87.906	155.73	541.32	199.66	133.08	944.88	-160.62	58.621	699.71	-206.41	367.51	38.717	79.77	-96.375	1287.5	123.17	-85.983	1034.4	239.8	-38.582	1390.9	29.086	-102.82	955.38	-60.502	283.9	849.52	-283.04	28.431	1539.8	-46.631	408.75	41.055	85.454	-107.76	948.45	71.249	181.07	26.404	123.24	-46.071	1044.9	322.44	137.68	623.76	218.43	232.66	64.515	167.17	129.95	704.57	242.25	241.08	275.95	166.44	260.48	187.06	109.37	252.52	271.58	105.56	249.79	886.83	-232.11	254.26	358.16	100.84	248.96	73.662	80.949	-258.75	118.1	-33.061	-85.977	1059.1	17.068	10.985	805.35	286.12	-337.05	103.03	-74.586	29.326	1001	-189.37
396	1.98	184.68	1551.5	-16.811	185.06	1550.1	80.949	151.09	939.02	202.47	45.715	1350.8	204.42	2.9119	1208	290.17	15.089	910.48	326.83	-7.7173	807.83	356.88	19.997	748.05	332.15	67.924	1335.6	-153.85	82.474	1191	-231.4	65.276	1048.2	-279.53	231.34	867.11	-299.13	197.92	640.19	200.42	358.56	28.354	170.39	-3.4583	550.59	-152.16	-55.423	489.35	-139.89	-94.655	329.32	-43.337	-166.1	37.302	-30.428	-143.21	259.15	-51.594	-187.97	24.258	-115.93	185.56	455.05	184.98	-142.41	265.88	-113.71	128.68	1315.6	26.918	-185.75	184.93	-57.965	-127.44	28.972	-29.57	193.73	1200.6	34.821	177.91	974.18	-275.26	79.398	615	-149.31	28.719	627.15	-179.59	-269.96	118.07	-117.74	14.54	1551.2	89.772	160.52	542.33	200.24	138.45	945.94	-159.52	64.27	700.4	-206.14	367.87	37.628	79.69	-91.348	1287.8	124.87	-80.392	1034.4	240.9	-33.709	1391.6	31.058	-97.379	956.01	-60.166	287.07	850.37	-281.65	33.011	1540.6	-44.784	409.3	39.345	85.316	-102.49	949.3	71.595	181.25	26.68	123.33	-40.416	1044.8	323.53	142.65	624.92	218.91	233.23	64.618	167.28	135.38	705.7	242.53	244.06	275.84	166.57	262.06	186.81	109.24	254.97	271.42	105.6	253.23	888.1	-230.83	257.71	357.94	101	249.35	73.555	80.918	-255.99	120.31	-33.618	-80.747	1059.7	17.814	16.997	805.36	286.93	-334.48	106.88	-74.753	33.072	1002.3	-187.45
397	1.985	189.3	1552.3	-15.082	189.76	1551	82.677	156.56	939.92	203.23	50.694	1351.2	206.19	8.3386	1208	291.62	20.943	910.55	327.76	-1.6788	807.84	357.69	26.153	748.15	332.93	72.839	1336.9	-152.08	86.159	1192.2	-229.98	68.397	1049.4	-277.9	234.28	867.92	-297.64	202.85	641.09	200.9	358.92	27.885	170.72	2.9586	550.85	-152.49	-48.79	489.47	-140.42	-89.195	329.42	-44.055	-165.73	37.372	-30.525	-138.51	259.8	-52.339	-187.84	24.32	-115.8	190.03	455.7	185.42	-137.86	266.65	-114.45	133.53	1316.7	28.705	-182.02	186.15	-58.688	-127.61	28.941	-29.666	198.77	1201.6	36.882	181.11	975.24	-273.88	85.475	615.71	-149.2	34.786	627.69	-179.58	-267.38	120.52	-118.22	19.259	1552.1	91.638	165.22	543.31	200.84	143.8	947.1	-158.37	69.991	701.17	-205.88	368.15	36.732	79.611	-86.315	1288.2	126.53	-74.794	1034.4	241.99	-28.84	1392.3	33.015	-91.929	956.73	-59.877	290.08	851.15	-280.32	37.605	1541.4	-42.938	409.77	37.882	85.189	-97.248	950.21	71.895	181.4	26.905	123.41	-34.761	1044.8	324.62	147.56	626.04	219.44	233.74	64.711	167.36	140.72	706.81	242.84	246.83	275.72	166.73	263.51	186.58	109.13	257.27	271.26	105.67	256.55	889.32	-229.62	261.01	357.73	101.22	249.66	73.475	80.878	-252.99	122.59	-34.172	-75.512	1060.4	18.563	23.035	805.47	287.74	-331.65	110.9	-74.898	36.804	1003.6	-185.49
398	1.99	193.93	1553.2	-13.361	194.48	1551.9	84.398	162.05	940.94	203.97	55.658	1351.7	207.94	13.768	1208.1	293.07	26.815	910.71	328.7	4.3916	807.93	358.51	32.337	748.33	333.69	77.752	1338.3	-150.31	89.872	1193.5	-228.55	71.486	1050.6	-276.24	237.09	868.7	-296.21	207.69	641.93	201.38	359.21	27.538	171.01	9.5636	551.14	-152.88	-41.923	489.58	-141.02	-83.454	329.51	-44.874	-165.34	37.444	-30.59	-133.56	260.46	-53.145	-187.66	24.425	-115.65	194.31	456.29	185.85	-133.09	267.44	-115.25	138.38	1317.7	30.503	-178.03	187.4	-59.45	-127.79	28.906	-29.758	203.79	1202.7	38.984	184.24	976.3	-272.53	91.684	616.49	-149.14	40.979	628.27	-179.6	-264.59	123.05	-118.68	23.994	1553.2	93.498	169.8	544.25	201.43	149.12	948.34	-157.19	75.778	702.02	-205.62	368.39	36.012	79.537	-81.278	1288.7	128.15	-69.194	1034.5	243.09	-23.979	1393.1	34.953	-86.471	957.51	-59.627	292.93	851.86	-279.07	42.213	1542.4	-41.097	410.19	36.65	85.075	-92.028	951.19	72.156	181.52	27.086	123.47	-29.108	1044.8	325.72	152.39	627.12	220.02	234.2	64.791	167.39	145.97	707.9	243.17	249.4	275.58	166.9	264.86	186.36	109.03	259.43	271.11	105.78	259.77	890.48	-228.46	264.14	357.52	101.48	249.89	73.418	80.829	-249.76	124.93	-34.719	-70.278	1061.2	19.318	29.097	805.67	288.56	-328.55	115.08	-75.023	40.525	1005	-183.49
399	1.995	198.58	1554.2	-11.648	199.22	1552.9	86.11	167.54	942.06	204.69	60.603	1352.2	209.66	19.199	1208.3	294.5	32.703	910.96	329.63	10.493	808.12	359.34	38.55	748.6	334.46	82.657	1339.7	-148.55	93.617	1194.8	-227.11	74.548	1051.8	-274.56	239.76	869.46	-294.84	212.44	642.69	201.85	359.46	27.291	171.25	16.356	551.43	-153.36	-34.819	489.67	-141.7	-77.425	329.56	-45.798	-164.92	37.524	-30.624	-128.36	261.12	-54.012	-187.41	24.584	-115.49	198.37	456.81	186.27	-128.11	268.24	-116.1	143.23	1318.9	32.305	-173.8	188.68	-60.246	-127.95	28.866	-29.848	208.8	1203.9	41.117	187.3	977.36	-271.2	98.023	617.34	-149.11	47.295	628.91	-179.67	-261.57	125.68	-119.12	28.742	1554.3	95.349	174.26	545.13	202.02	154.39	949.66	-155.97	81.623	702.95	-205.36	368.57	35.45	79.468	-76.24	1289.1	129.73	-63.596	1034.7	244.19	-19.129	1394	36.873	-81.011	958.38	-59.406	295.63	852.48	-277.88	46.833	1543.4	-39.264	410.55	35.633	84.976	-86.835	952.23	72.389	181.61	27.23	123.52	-23.458	1044.9	326.81	157.15	628.13	220.66	234.6	64.857	167.4	151.12	708.95	243.53	251.76	275.43	167.1	266.09	186.17	108.96	261.46	270.98	105.91	262.87	891.59	-227.37	267.1	357.32	101.79	250.08	73.382	80.776	-246.29	127.32	-35.259	-65.047	1062	20.08	35.182	805.97	289.37	-325.15	119.4	-75.133	44.24	1006.5	-181.46
